<svg width="104" height="104" viewBox="0 0 104 104" fill="none" xmlns="http://www.w3.org/2000/svg">
<g filter="url(#filter0_ddd_3207_1284)">
<path d="M52 78.4591V85.8031H59.344L81.412 63.7711L74.068 56.3911L52 78.4591ZM87.46 55.0951L82.708 50.3431C81.988 49.6231 80.8 49.6231 80.116 50.3431L76.588 53.8711L83.932 61.2151L87.46 57.6871C88.18 57.0031 88.18 55.8151 87.46 55.0951Z" fill="#32D86B"/>
<path d="M52 78.4591V85.8031H59.344L81.412 63.7711L74.068 56.3911L52 78.4591ZM87.46 55.0951L82.708 50.3431C81.988 49.6231 80.8 49.6231 80.116 50.3431L76.588 53.8711L83.932 61.2151L87.46 57.6871C88.18 57.0031 88.18 55.8151 87.46 55.0951Z" fill="url(#paint0_radial_3207_1284)"/>
<path d="M63.8384 56.4384L57.4 50L68.2 39.2H88V45.4528L87.7992 45.252C84.3694 41.8222 78.5827 41.6051 74.9827 45.2941L63.8384 56.4384Z" fill="#32D86B"/>
<path d="M63.8384 56.4384L57.4 50L68.2 39.2H88V45.4528L87.7992 45.252C84.3694 41.8222 78.5827 41.6051 74.9827 45.2941L63.8384 56.4384Z" fill="url(#paint1_radial_3207_1284)"/>
<path d="M58.4384 61.8384L52 55.4L41.2 66.2V86H44.8V75.4768L58.4384 61.8384Z" fill="#32D86B"/>
<path d="M58.4384 61.8384L52 55.4L41.2 66.2V86H44.8V75.4768L58.4384 61.8384Z" fill="url(#paint2_radial_3207_1284)"/>
<path d="M16 39.2H35.8L46.6 50L35.8 60.8H16V39.2Z" fill="#32D86B"/>
<path d="M16 39.2H35.8L46.6 50L35.8 60.8H16V39.2Z" fill="url(#paint3_radial_3207_1284)"/>
<path d="M62.8 14V33.8L52 44.6L41.2 33.8V14H62.8Z" fill="#32D86B"/>
<path d="M62.8 14V33.8L52 44.6L41.2 33.8V14H62.8Z" fill="url(#paint4_radial_3207_1284)"/>
</g>
<defs>
<filter id="filter0_ddd_3207_1284" x="0" y="0" width="104" height="104" filterUnits="userSpaceOnUse" color-interpolation-filters="sRGB">
<feFlood flood-opacity="0" result="BackgroundImageFix"/>
<feColorMatrix in="SourceAlpha" type="matrix" values="0 0 0 0 0 0 0 0 0 0 0 0 0 0 0 0 0 0 127 0" result="hardAlpha"/>
<feOffset dy="1"/>
<feGaussianBlur stdDeviation="2"/>
<feComposite in2="hardAlpha" operator="out"/>
<feColorMatrix type="matrix" values="0 0 0 0 0 0 0 0 0 0 0 0 0 0 0 0 0 0 0.5 0"/>
<feBlend mode="normal" in2="BackgroundImageFix" result="effect1_dropShadow_3207_1284"/>
<feColorMatrix in="SourceAlpha" type="matrix" values="0 0 0 0 0 0 0 0 0 0 0 0 0 0 0 0 0 0 127 0" result="hardAlpha"/>
<feOffset dy="2"/>
<feGaussianBlur stdDeviation="8"/>
<feComposite in2="hardAlpha" operator="out"/>
<feColorMatrix type="matrix" values="0 0 0 0 0 0 0 0 0 0 0 0 0 0 0 0 0 0 0.5 0"/>
<feBlend mode="normal" in2="effect1_dropShadow_3207_1284" result="effect2_dropShadow_3207_1284"/>
<feColorMatrix in="SourceAlpha" type="matrix" values="0 0 0 0 0 0 0 0 0 0 0 0 0 0 0 0 0 0 127 0" result="hardAlpha"/>
<feOffset dy="1"/>
<feGaussianBlur stdDeviation="0.5"/>
<feComposite in2="hardAlpha" operator="out"/>
<feColorMatrix type="matrix" values="0 0 0 0 0 0 0 0 0 0 0 0 0 0 0 0 0 0 0.5 0"/>
<feBlend mode="normal" in2="effect2_dropShadow_3207_1284" result="effect3_dropShadow_3207_1284"/>
<feBlend mode="normal" in="SourceGraphic" in2="effect3_dropShadow_3207_1284" result="shape"/>
</filter>
<radialGradient id="paint0_radial_3207_1284" cx="0" cy="0" r="1" gradientUnits="userSpaceOnUse" gradientTransform="translate(7.99997 82) rotate(90) scale(74 1134.01)">
<stop stop-color="white" stop-opacity="0.33"/>
<stop offset="0.510275" stop-color="white" stop-opacity="0"/>
<stop offset="0.51043" stop-color="white" stop-opacity="0.23"/>
<stop offset="1" stop-color="white" stop-opacity="0.19"/>
</radialGradient>
<radialGradient id="paint1_radial_3207_1284" cx="0" cy="0" r="1" gradientUnits="userSpaceOnUse" gradientTransform="translate(7.99997 82) rotate(90) scale(74 1134.01)">
<stop stop-color="white" stop-opacity="0.33"/>
<stop offset="0.510275" stop-color="white" stop-opacity="0"/>
<stop offset="0.51043" stop-color="white" stop-opacity="0.23"/>
<stop offset="1" stop-color="white" stop-opacity="0.19"/>
</radialGradient>
<radialGradient id="paint2_radial_3207_1284" cx="0" cy="0" r="1" gradientUnits="userSpaceOnUse" gradientTransform="translate(7.99997 82) rotate(90) scale(74 1134.01)">
<stop stop-color="white" stop-opacity="0.33"/>
<stop offset="0.510275" stop-color="white" stop-opacity="0"/>
<stop offset="0.51043" stop-color="white" stop-opacity="0.23"/>
<stop offset="1" stop-color="white" stop-opacity="0.19"/>
</radialGradient>
<radialGradient id="paint3_radial_3207_1284" cx="0" cy="0" r="1" gradientUnits="userSpaceOnUse" gradientTransform="translate(7.99997 82) rotate(90) scale(74 1134.01)">
<stop stop-color="white" stop-opacity="0.33"/>
<stop offset="0.510275" stop-color="white" stop-opacity="0"/>
<stop offset="0.51043" stop-color="white" stop-opacity="0.23"/>
<stop offset="1" stop-color="white" stop-opacity="0.19"/>
</radialGradient>
<radialGradient id="paint4_radial_3207_1284" cx="0" cy="0" r="1" gradientUnits="userSpaceOnUse" gradientTransform="translate(7.99997 82) rotate(90) scale(74 1134.01)">
<stop stop-color="white" stop-opacity="0.33"/>
<stop offset="0.510275" stop-color="white" stop-opacity="0"/>
<stop offset="0.51043" stop-color="white" stop-opacity="0.23"/>
<stop offset="1" stop-color="white" stop-opacity="0.19"/>
</radialGradient>
</defs>
</svg>
