<svg width="104" height="88" viewBox="0 0 104 88" fill="none" xmlns="http://www.w3.org/2000/svg">
<g filter="url(#filter0_ddd_3207_1286)">
<path d="M76.9908 18.7987C72.3302 16.6181 67.3467 15.0333 62.1367 14.1309C61.4968 15.2877 60.7493 16.8437 60.2339 18.0815C54.6955 17.2486 49.208 17.2486 43.7715 18.0815C43.2562 16.8437 42.4917 15.2877 41.8461 14.1309C36.6304 15.0333 31.6413 16.6239 26.9806 18.8103C17.5799 33.0161 15.0316 46.8691 16.3057 60.5253C22.5408 65.1816 28.5832 68.0101 34.5237 69.861C35.9905 67.8423 37.2986 65.6964 38.4255 63.4348C36.2793 62.6192 34.2236 61.6128 32.2812 60.4444C32.7965 60.0626 33.3006 59.6635 33.7875 59.2528C45.6346 64.7941 58.5067 64.7941 70.2122 59.2528C70.7049 59.6635 71.2089 60.0626 71.7185 60.4444C69.7704 61.6185 67.7091 62.625 65.5629 63.4406C66.6898 65.6964 67.9923 67.8481 69.4647 69.8667C75.4109 68.0158 81.459 65.1874 87.694 60.5253C89.1891 44.6942 85.14 30.9685 76.9908 18.7987ZM40.0395 52.1269C36.4832 52.1269 33.5667 48.8067 33.5667 44.7636C33.5667 40.7205 36.4209 37.3947 40.0395 37.3947C43.6583 37.3947 46.5747 40.7147 46.5124 44.7636C46.518 48.8067 43.6583 52.1269 40.0395 52.1269ZM63.9602 52.1269C60.4039 52.1269 57.4874 48.8067 57.4874 44.7636C57.4874 40.7205 60.3415 37.3947 63.9602 37.3947C67.5789 37.3947 70.4954 40.7147 70.4331 44.7636C70.4331 48.8067 67.5789 52.1269 63.9602 52.1269Z" fill="#498BED"/>
<path d="M76.9908 18.7987C72.3302 16.6181 67.3467 15.0333 62.1367 14.1309C61.4968 15.2877 60.7493 16.8437 60.2339 18.0815C54.6955 17.2486 49.208 17.2486 43.7715 18.0815C43.2562 16.8437 42.4917 15.2877 41.8461 14.1309C36.6304 15.0333 31.6413 16.6239 26.9806 18.8103C17.5799 33.0161 15.0316 46.8691 16.3057 60.5253C22.5408 65.1816 28.5832 68.0101 34.5237 69.861C35.9905 67.8423 37.2986 65.6964 38.4255 63.4348C36.2793 62.6192 34.2236 61.6128 32.2812 60.4444C32.7965 60.0626 33.3006 59.6635 33.7875 59.2528C45.6346 64.7941 58.5067 64.7941 70.2122 59.2528C70.7049 59.6635 71.2089 60.0626 71.7185 60.4444C69.7704 61.6185 67.7091 62.625 65.5629 63.4406C66.6898 65.6964 67.9923 67.8481 69.4647 69.8667C75.4109 68.0158 81.459 65.1874 87.694 60.5253C89.1891 44.6942 85.14 30.9685 76.9908 18.7987ZM40.0395 52.1269C36.4832 52.1269 33.5667 48.8067 33.5667 44.7636C33.5667 40.7205 36.4209 37.3947 40.0395 37.3947C43.6583 37.3947 46.5747 40.7147 46.5124 44.7636C46.518 48.8067 43.6583 52.1269 40.0395 52.1269ZM63.9602 52.1269C60.4039 52.1269 57.4874 48.8067 57.4874 44.7636C57.4874 40.7205 60.3415 37.3947 63.9602 37.3947C67.5789 37.3947 70.4954 40.7147 70.4331 44.7636C70.4331 48.8067 67.5789 52.1269 63.9602 52.1269Z" fill="url(#paint0_radial_3207_1286)"/>
</g>
<defs>
<filter id="filter0_ddd_3207_1286" x="0" y="-8" width="104" height="104" filterUnits="userSpaceOnUse" color-interpolation-filters="sRGB">
<feFlood flood-opacity="0" result="BackgroundImageFix"/>
<feColorMatrix in="SourceAlpha" type="matrix" values="0 0 0 0 0 0 0 0 0 0 0 0 0 0 0 0 0 0 127 0" result="hardAlpha"/>
<feOffset dy="1"/>
<feGaussianBlur stdDeviation="2"/>
<feComposite in2="hardAlpha" operator="out"/>
<feColorMatrix type="matrix" values="0 0 0 0 0 0 0 0 0 0 0 0 0 0 0 0 0 0 0.5 0"/>
<feBlend mode="normal" in2="BackgroundImageFix" result="effect1_dropShadow_3207_1286"/>
<feColorMatrix in="SourceAlpha" type="matrix" values="0 0 0 0 0 0 0 0 0 0 0 0 0 0 0 0 0 0 127 0" result="hardAlpha"/>
<feOffset dy="2"/>
<feGaussianBlur stdDeviation="8"/>
<feComposite in2="hardAlpha" operator="out"/>
<feColorMatrix type="matrix" values="0 0 0 0 0 0 0 0 0 0 0 0 0 0 0 0 0 0 0.5 0"/>
<feBlend mode="normal" in2="effect1_dropShadow_3207_1286" result="effect2_dropShadow_3207_1286"/>
<feColorMatrix in="SourceAlpha" type="matrix" values="0 0 0 0 0 0 0 0 0 0 0 0 0 0 0 0 0 0 127 0" result="hardAlpha"/>
<feOffset dy="1"/>
<feGaussianBlur stdDeviation="0.5"/>
<feComposite in2="hardAlpha" operator="out"/>
<feColorMatrix type="matrix" values="0 0 0 0 0 0 0 0 0 0 0 0 0 0 0 0 0 0 0.5 0"/>
<feBlend mode="normal" in2="effect2_dropShadow_3207_1286" result="effect3_dropShadow_3207_1286"/>
<feBlend mode="normal" in="SourceGraphic" in2="effect3_dropShadow_3207_1286" result="shape"/>
</filter>
<radialGradient id="paint0_radial_3207_1286" cx="0" cy="0" r="1" gradientUnits="userSpaceOnUse" gradientTransform="translate(-80 74) rotate(90) scale(74.0002 1134.01)">
<stop stop-color="white" stop-opacity="0.33"/>
<stop offset="0.510275" stop-color="white" stop-opacity="0"/>
<stop offset="0.51043" stop-color="white" stop-opacity="0.23"/>
<stop offset="1" stop-color="white" stop-opacity="0.19"/>
</radialGradient>
</defs>
</svg>
