<svg width="104" height="103" viewBox="0 0 104 103" fill="none" xmlns="http://www.w3.org/2000/svg">
<g filter="url(#filter0_ddd_3207_1288)">
<path d="M62.2666 84.5149C77.1469 80.0953 88 66.3151 88 50C88 30.1177 71.8823 14 52 14C32.1177 14 16 30.1177 16 50C16 66.2797 26.8061 80.0356 41.6367 84.486C42.6012 84.2869 42.9787 83.4547 42.9787 82.7269C42.9787 82.4369 42.9717 81.9031 42.9625 81.2049C42.9451 79.8856 42.9199 77.979 42.9199 76.0214C32.9354 78.177 30.8562 71.7109 30.8562 71.7109C29.2517 67.5202 26.8742 66.4432 26.8742 66.4432C23.6063 64.2281 27.1122 64.2281 27.1122 64.2281C30.7372 64.4676 32.6393 67.9398 32.6393 67.9398C35.8478 73.447 41.0178 71.8909 43.0977 70.9329C43.3945 68.598 44.346 66.9817 45.3562 66.0839C37.3928 65.2456 29.0144 62.1327 29.0144 48.2433C29.0144 44.2922 30.4397 41.0595 32.6981 38.5454C32.3418 37.6476 31.0936 33.9352 33.0552 28.9665C33.0552 28.9665 36.0858 28.0084 42.9192 32.6781C45.8448 31.8866 48.8619 31.484 51.8927 31.4806C54.9234 31.4806 58.0127 31.9001 60.8656 32.6781C67.6997 28.0084 70.7303 28.9665 70.7303 28.9665C72.6919 33.9352 71.4429 37.6476 71.0866 38.5454C73.4046 41.0595 74.7711 44.2922 74.7711 48.2433C74.7711 62.1327 66.3927 65.1854 58.3698 66.0839C59.6776 67.2212 60.806 69.3761 60.806 72.7887C60.806 76.0282 60.7798 78.8404 60.7624 80.7073C60.7537 81.6347 60.7473 82.329 60.7473 82.7262C60.7473 83.4976 61.1711 84.3856 62.2666 84.5149Z" fill="#B92CEB"/>
<path d="M62.2666 84.5149C77.1469 80.0953 88 66.3151 88 50C88 30.1177 71.8823 14 52 14C32.1177 14 16 30.1177 16 50C16 66.2797 26.8061 80.0356 41.6367 84.486C42.6012 84.2869 42.9787 83.4547 42.9787 82.7269C42.9787 82.4369 42.9717 81.9031 42.9625 81.2049C42.9451 79.8856 42.9199 77.979 42.9199 76.0214C32.9354 78.177 30.8562 71.7109 30.8562 71.7109C29.2517 67.5202 26.8742 66.4432 26.8742 66.4432C23.6063 64.2281 27.1122 64.2281 27.1122 64.2281C30.7372 64.4676 32.6393 67.9398 32.6393 67.9398C35.8478 73.447 41.0178 71.8909 43.0977 70.9329C43.3945 68.598 44.346 66.9817 45.3562 66.0839C37.3928 65.2456 29.0144 62.1327 29.0144 48.2433C29.0144 44.2922 30.4397 41.0595 32.6981 38.5454C32.3418 37.6476 31.0936 33.9352 33.0552 28.9665C33.0552 28.9665 36.0858 28.0084 42.9192 32.6781C45.8448 31.8866 48.8619 31.484 51.8927 31.4806C54.9234 31.4806 58.0127 31.9001 60.8656 32.6781C67.6997 28.0084 70.7303 28.9665 70.7303 28.9665C72.6919 33.9352 71.4429 37.6476 71.0866 38.5454C73.4046 41.0595 74.7711 44.2922 74.7711 48.2433C74.7711 62.1327 66.3927 65.1854 58.3698 66.0839C59.6776 67.2212 60.806 69.3761 60.806 72.7887C60.806 76.0282 60.7798 78.8404 60.7624 80.7073C60.7537 81.6347 60.7473 82.329 60.7473 82.7262C60.7473 83.4976 61.1711 84.3856 62.2666 84.5149Z" fill="url(#paint0_radial_3207_1288)"/>
</g>
<defs>
<filter id="filter0_ddd_3207_1288" x="0" y="0" width="104" height="104" filterUnits="userSpaceOnUse" color-interpolation-filters="sRGB">
<feFlood flood-opacity="0" result="BackgroundImageFix"/>
<feColorMatrix in="SourceAlpha" type="matrix" values="0 0 0 0 0 0 0 0 0 0 0 0 0 0 0 0 0 0 127 0" result="hardAlpha"/>
<feOffset dy="1"/>
<feGaussianBlur stdDeviation="2"/>
<feComposite in2="hardAlpha" operator="out"/>
<feColorMatrix type="matrix" values="0 0 0 0 0 0 0 0 0 0 0 0 0 0 0 0 0 0 0.5 0"/>
<feBlend mode="normal" in2="BackgroundImageFix" result="effect1_dropShadow_3207_1288"/>
<feColorMatrix in="SourceAlpha" type="matrix" values="0 0 0 0 0 0 0 0 0 0 0 0 0 0 0 0 0 0 127 0" result="hardAlpha"/>
<feOffset dy="2"/>
<feGaussianBlur stdDeviation="8"/>
<feComposite in2="hardAlpha" operator="out"/>
<feColorMatrix type="matrix" values="0 0 0 0 0 0 0 0 0 0 0 0 0 0 0 0 0 0 0.5 0"/>
<feBlend mode="normal" in2="effect1_dropShadow_3207_1288" result="effect2_dropShadow_3207_1288"/>
<feColorMatrix in="SourceAlpha" type="matrix" values="0 0 0 0 0 0 0 0 0 0 0 0 0 0 0 0 0 0 127 0" result="hardAlpha"/>
<feOffset dy="1"/>
<feGaussianBlur stdDeviation="0.5"/>
<feComposite in2="hardAlpha" operator="out"/>
<feColorMatrix type="matrix" values="0 0 0 0 0 0 0 0 0 0 0 0 0 0 0 0 0 0 0.5 0"/>
<feBlend mode="normal" in2="effect2_dropShadow_3207_1288" result="effect3_dropShadow_3207_1288"/>
<feBlend mode="normal" in="SourceGraphic" in2="effect3_dropShadow_3207_1288" result="shape"/>
</filter>
<radialGradient id="paint0_radial_3207_1288" cx="0" cy="0" r="1" gradientUnits="userSpaceOnUse" gradientTransform="translate(-168 82) rotate(90) scale(73.9998 1134.01)">
<stop stop-color="white" stop-opacity="0.33"/>
<stop offset="0.510275" stop-color="white" stop-opacity="0"/>
<stop offset="0.51043" stop-color="white" stop-opacity="0.23"/>
<stop offset="1" stop-color="white" stop-opacity="0.19"/>
</radialGradient>
</defs>
</svg>
