<svg width="100" height="104" viewBox="0 0 100 104" fill="none" xmlns="http://www.w3.org/2000/svg">
<g filter="url(#filter0_ddd_3207_1282)">
<path fill-rule="evenodd" clip-rule="evenodd" d="M67.5206 14.9261C75.5133 16.1075 82.2558 22.204 83.2966 29.9401C83.75 34.5414 83.5256 41.455 83.4164 44.8156C83.3893 45.6515 83.3693 46.2683 83.3686 46.574C83.3686 47.0256 83.3032 51.1489 83.277 51.5841C82.5765 62.6385 75.6836 67.0039 68.4404 68.3947C68.3622 68.4182 68.2737 68.4354 68.183 68.453L68.113 68.4667C63.521 69.3634 58.6016 69.6022 53.9344 69.7331C52.8182 69.7626 51.7054 69.7626 50.5894 69.7626C45.9487 69.7638 41.3243 69.2146 36.8132 68.1264C36.7893 68.1202 36.7642 68.1197 36.7401 68.125C36.7159 68.1302 36.6935 68.1412 36.6743 68.1568C36.6551 68.1724 36.64 68.1923 36.63 68.2148C36.62 68.2374 36.6155 68.2621 36.6168 68.2867C36.7443 69.7553 37.0634 71.2009 37.566 72.5868C38.1911 74.1903 40.3742 78.0419 48.4913 78.0419C53.2079 78.0506 57.909 77.5014 62.4966 76.4056C62.5199 76.4003 62.5441 76.4002 62.5674 76.4054C62.5908 76.4106 62.6127 76.4209 62.6315 76.4357C62.6504 76.4504 62.6656 76.4692 62.6763 76.4906C62.6869 76.5121 62.6926 76.5356 62.693 76.5595V81.9852C62.6921 82.0108 62.6855 82.0358 62.6735 82.0585C62.6616 82.0811 62.6448 82.1008 62.6242 82.1161C61.1899 83.1556 59.2611 83.7668 57.572 84.302L57.3448 84.3741C56.5768 84.6163 55.7988 84.829 55.0111 85.0122C47.8508 86.6429 40.3778 86.2486 33.4289 83.8734C26.9385 81.5957 20.3139 76.013 18.6773 69.3045C17.8034 65.6721 17.1876 61.9825 16.8346 58.2632C16.4637 54.196 16.3398 50.1219 16.2157 46.0421C16.169 44.5054 16.1222 42.9679 16.0622 41.4297C15.9084 37.5093 15.9967 33.2355 16.8248 29.3805C18.5464 21.5528 25.6423 16.0747 33.4125 14.9261C33.5722 14.9025 33.7486 14.8714 33.9552 14.8351C35.493 14.5646 38.7028 14 49.1394 14H49.2278C61.063 14 66.1721 14.7265 67.5206 14.9261ZM71.549 56.5032V37.7661C71.549 33.9296 70.5802 30.8979 68.6426 28.6419C66.6337 26.386 64.0123 25.2364 60.7639 25.2364C56.9885 25.2364 54.1391 26.7021 52.2585 29.619L50.4207 32.7227L48.5828 29.619C46.7021 26.7021 43.8385 25.2364 40.0774 25.2364C36.8289 25.2364 34.2076 26.386 32.1987 28.6419C30.2611 30.8979 29.2923 33.944 29.2923 37.7661V56.5032H36.6437V38.3265C36.6437 34.49 38.2536 32.5502 41.445 32.5502C44.9925 32.5502 46.7592 34.8492 46.7592 39.4186V49.3763H54.0678V39.4186C54.0678 34.8636 55.8488 32.5502 59.382 32.5502C62.5876 32.5502 64.1833 34.49 64.1833 38.3265V56.5032H71.549Z" fill="#F3CB3D"/>
<path fill-rule="evenodd" clip-rule="evenodd" d="M67.5206 14.9261C75.5133 16.1075 82.2558 22.204 83.2966 29.9401C83.75 34.5414 83.5256 41.455 83.4164 44.8156C83.3893 45.6515 83.3693 46.2683 83.3686 46.574C83.3686 47.0256 83.3032 51.1489 83.277 51.5841C82.5765 62.6385 75.6836 67.0039 68.4404 68.3947C68.3622 68.4182 68.2737 68.4354 68.183 68.453L68.113 68.4667C63.521 69.3634 58.6016 69.6022 53.9344 69.7331C52.8182 69.7626 51.7054 69.7626 50.5894 69.7626C45.9487 69.7638 41.3243 69.2146 36.8132 68.1264C36.7893 68.1202 36.7642 68.1197 36.7401 68.125C36.7159 68.1302 36.6935 68.1412 36.6743 68.1568C36.6551 68.1724 36.64 68.1923 36.63 68.2148C36.62 68.2374 36.6155 68.2621 36.6168 68.2867C36.7443 69.7553 37.0634 71.2009 37.566 72.5868C38.1911 74.1903 40.3742 78.0419 48.4913 78.0419C53.2079 78.0506 57.909 77.5014 62.4966 76.4056C62.5199 76.4003 62.5441 76.4002 62.5674 76.4054C62.5908 76.4106 62.6127 76.4209 62.6315 76.4357C62.6504 76.4504 62.6656 76.4692 62.6763 76.4906C62.6869 76.5121 62.6926 76.5356 62.693 76.5595V81.9852C62.6921 82.0108 62.6855 82.0358 62.6735 82.0585C62.6616 82.0811 62.6448 82.1008 62.6242 82.1161C61.1899 83.1556 59.2611 83.7668 57.572 84.302L57.3448 84.3741C56.5768 84.6163 55.7988 84.829 55.0111 85.0122C47.8508 86.6429 40.3778 86.2486 33.4289 83.8734C26.9385 81.5957 20.3139 76.013 18.6773 69.3045C17.8034 65.6721 17.1876 61.9825 16.8346 58.2632C16.4637 54.196 16.3398 50.1219 16.2157 46.0421C16.169 44.5054 16.1222 42.9679 16.0622 41.4297C15.9084 37.5093 15.9967 33.2355 16.8248 29.3805C18.5464 21.5528 25.6423 16.0747 33.4125 14.9261C33.5722 14.9025 33.7486 14.8714 33.9552 14.8351C35.493 14.5646 38.7028 14 49.1394 14H49.2278C61.063 14 66.1721 14.7265 67.5206 14.9261ZM71.549 56.5032V37.7661C71.549 33.9296 70.5802 30.8979 68.6426 28.6419C66.6337 26.386 64.0123 25.2364 60.7639 25.2364C56.9885 25.2364 54.1391 26.7021 52.2585 29.619L50.4207 32.7227L48.5828 29.619C46.7021 26.7021 43.8385 25.2364 40.0774 25.2364C36.8289 25.2364 34.2076 26.386 32.1987 28.6419C30.2611 30.8979 29.2923 33.944 29.2923 37.7661V56.5032H36.6437V38.3265C36.6437 34.49 38.2536 32.5502 41.445 32.5502C44.9925 32.5502 46.7592 34.8492 46.7592 39.4186V49.3763H54.0678V39.4186C54.0678 34.8636 55.8488 32.5502 59.382 32.5502C62.5876 32.5502 64.1833 34.49 64.1833 38.3265V56.5032H71.549Z" fill="url(#paint0_radial_3207_1282)"/>
</g>
<defs>
<filter id="filter0_ddd_3207_1282" x="-2" y="0" width="104" height="104" filterUnits="userSpaceOnUse" color-interpolation-filters="sRGB">
<feFlood flood-opacity="0" result="BackgroundImageFix"/>
<feColorMatrix in="SourceAlpha" type="matrix" values="0 0 0 0 0 0 0 0 0 0 0 0 0 0 0 0 0 0 127 0" result="hardAlpha"/>
<feOffset dy="1"/>
<feGaussianBlur stdDeviation="2"/>
<feComposite in2="hardAlpha" operator="out"/>
<feColorMatrix type="matrix" values="0 0 0 0 0 0 0 0 0 0 0 0 0 0 0 0 0 0 0.5 0"/>
<feBlend mode="normal" in2="BackgroundImageFix" result="effect1_dropShadow_3207_1282"/>
<feColorMatrix in="SourceAlpha" type="matrix" values="0 0 0 0 0 0 0 0 0 0 0 0 0 0 0 0 0 0 127 0" result="hardAlpha"/>
<feOffset dy="2"/>
<feGaussianBlur stdDeviation="8"/>
<feComposite in2="hardAlpha" operator="out"/>
<feColorMatrix type="matrix" values="0 0 0 0 0 0 0 0 0 0 0 0 0 0 0 0 0 0 0.5 0"/>
<feBlend mode="normal" in2="effect1_dropShadow_3207_1282" result="effect2_dropShadow_3207_1282"/>
<feColorMatrix in="SourceAlpha" type="matrix" values="0 0 0 0 0 0 0 0 0 0 0 0 0 0 0 0 0 0 127 0" result="hardAlpha"/>
<feOffset dy="1"/>
<feGaussianBlur stdDeviation="0.5"/>
<feComposite in2="hardAlpha" operator="out"/>
<feColorMatrix type="matrix" values="0 0 0 0 0 0 0 0 0 0 0 0 0 0 0 0 0 0 0.5 0"/>
<feBlend mode="normal" in2="effect2_dropShadow_3207_1282" result="effect3_dropShadow_3207_1282"/>
<feBlend mode="normal" in="SourceGraphic" in2="effect3_dropShadow_3207_1282" result="shape"/>
</filter>
<radialGradient id="paint0_radial_3207_1282" cx="0" cy="0" r="1" gradientUnits="userSpaceOnUse" gradientTransform="translate(94 81.9999) rotate(90) scale(74.0001 1134.03)">
<stop stop-color="white" stop-opacity="0.33"/>
<stop offset="0.510275" stop-color="white" stop-opacity="0"/>
<stop offset="0.51043" stop-color="white" stop-opacity="0.23"/>
<stop offset="1" stop-color="white" stop-opacity="0.19"/>
</radialGradient>
</defs>
</svg>
