<svg width="74" height="104" viewBox="0 0 74 104" fill="none" xmlns="http://www.w3.org/2000/svg">
<g filter="url(#filter0_ddd_3207_1280)">
<path d="M57.5725 86H45.4256C34.4992 86 26.3569 80.4281 26.3569 67.1017V45.7584H16.4297V34.1992C27.3541 31.3897 31.9249 22.0718 32.4499 14H43.7936V32.3262H57.0318V45.7584H43.7956V64.3432C43.7956 69.9131 46.6325 71.839 51.1484 71.839H57.5569L57.5725 86Z" fill="#F89438"/>
<path d="M57.5725 86H45.4256C34.4992 86 26.3569 80.4281 26.3569 67.1017V45.7584H16.4297V34.1992C27.3541 31.3897 31.9249 22.0718 32.4499 14H43.7936V32.3262H57.0318V45.7584H43.7956V64.3432C43.7956 69.9131 46.6325 71.839 51.1484 71.839H57.5569L57.5725 86Z" fill="url(#paint0_radial_3207_1280)"/>
</g>
<defs>
<filter id="filter0_ddd_3207_1280" x="-15" y="0" width="104" height="104" filterUnits="userSpaceOnUse" color-interpolation-filters="sRGB">
<feFlood flood-opacity="0" result="BackgroundImageFix"/>
<feColorMatrix in="SourceAlpha" type="matrix" values="0 0 0 0 0 0 0 0 0 0 0 0 0 0 0 0 0 0 127 0" result="hardAlpha"/>
<feOffset dy="1"/>
<feGaussianBlur stdDeviation="2"/>
<feComposite in2="hardAlpha" operator="out"/>
<feColorMatrix type="matrix" values="0 0 0 0 0 0 0 0 0 0 0 0 0 0 0 0 0 0 0.5 0"/>
<feBlend mode="normal" in2="BackgroundImageFix" result="effect1_dropShadow_3207_1280"/>
<feColorMatrix in="SourceAlpha" type="matrix" values="0 0 0 0 0 0 0 0 0 0 0 0 0 0 0 0 0 0 127 0" result="hardAlpha"/>
<feOffset dy="2"/>
<feGaussianBlur stdDeviation="8"/>
<feComposite in2="hardAlpha" operator="out"/>
<feColorMatrix type="matrix" values="0 0 0 0 0 0 0 0 0 0 0 0 0 0 0 0 0 0 0.5 0"/>
<feBlend mode="normal" in2="effect1_dropShadow_3207_1280" result="effect2_dropShadow_3207_1280"/>
<feColorMatrix in="SourceAlpha" type="matrix" values="0 0 0 0 0 0 0 0 0 0 0 0 0 0 0 0 0 0 127 0" result="hardAlpha"/>
<feOffset dy="1"/>
<feGaussianBlur stdDeviation="0.5"/>
<feComposite in2="hardAlpha" operator="out"/>
<feColorMatrix type="matrix" values="0 0 0 0 0 0 0 0 0 0 0 0 0 0 0 0 0 0 0.5 0"/>
<feBlend mode="normal" in2="effect2_dropShadow_3207_1280" result="effect3_dropShadow_3207_1280"/>
<feBlend mode="normal" in="SourceGraphic" in2="effect3_dropShadow_3207_1280" result="shape"/>
</filter>
<radialGradient id="paint0_radial_3207_1280" cx="0" cy="0" r="1" gradientUnits="userSpaceOnUse" gradientTransform="translate(169 82) rotate(90) scale(74 1134.05)">
<stop stop-color="white" stop-opacity="0.33"/>
<stop offset="0.510275" stop-color="white" stop-opacity="0"/>
<stop offset="0.51043" stop-color="white" stop-opacity="0.23"/>
<stop offset="1" stop-color="white" stop-opacity="0.19"/>
</radialGradient>
</defs>
</svg>
