<svg width="104" height="84" viewBox="0 0 104 84" fill="none" xmlns="http://www.w3.org/2000/svg">
<g filter="url(#filter0_ddd_3207_1278)">
<path fill-rule="evenodd" clip-rule="evenodd" d="M80.1299 16.3053C83.2277 17.1333 85.6674 19.573 86.4955 22.6708C88 28.2857 88 40.0008 88 40.0008C88 40.0008 88 51.7159 86.4955 57.3308C85.6674 60.4286 83.2277 62.8683 80.1299 63.6963C74.515 65.2008 52 65.2008 52 65.2008C52 65.2008 29.485 65.2008 23.8701 63.6963C20.7723 62.8683 18.3326 60.4286 17.5045 57.3308C16 51.7159 16 40.0008 16 40.0008C16 40.0008 16 28.2857 17.5045 22.6708C18.3326 19.573 20.7723 17.1333 23.8701 16.3053C29.485 14.8008 52 14.8008 52 14.8008C52 14.8008 74.515 14.8008 80.1299 16.3053ZM63.5053 40.0011L44.8 50.8008V29.2008L63.5053 40.0011Z" fill="#F85353"/>
<path fill-rule="evenodd" clip-rule="evenodd" d="M80.1299 16.3053C83.2277 17.1333 85.6674 19.573 86.4955 22.6708C88 28.2857 88 40.0008 88 40.0008C88 40.0008 88 51.7159 86.4955 57.3308C85.6674 60.4286 83.2277 62.8683 80.1299 63.6963C74.515 65.2008 52 65.2008 52 65.2008C52 65.2008 29.485 65.2008 23.8701 63.6963C20.7723 62.8683 18.3326 60.4286 17.5045 57.3308C16 51.7159 16 40.0008 16 40.0008C16 40.0008 16 28.2857 17.5045 22.6708C18.3326 19.573 20.7723 17.1333 23.8701 16.3053C29.485 14.8008 52 14.8008 52 14.8008C52 14.8008 74.515 14.8008 80.1299 16.3053ZM63.5053 40.0011L44.8 50.8008V29.2008L63.5053 40.0011Z" fill="url(#paint0_radial_3207_1278)"/>
</g>
<defs>
<filter id="filter0_ddd_3207_1278" x="0" y="-10" width="104" height="104" filterUnits="userSpaceOnUse" color-interpolation-filters="sRGB">
<feFlood flood-opacity="0" result="BackgroundImageFix"/>
<feColorMatrix in="SourceAlpha" type="matrix" values="0 0 0 0 0 0 0 0 0 0 0 0 0 0 0 0 0 0 127 0" result="hardAlpha"/>
<feOffset dy="1"/>
<feGaussianBlur stdDeviation="2"/>
<feComposite in2="hardAlpha" operator="out"/>
<feColorMatrix type="matrix" values="0 0 0 0 0 0 0 0 0 0 0 0 0 0 0 0 0 0 0.5 0"/>
<feBlend mode="normal" in2="BackgroundImageFix" result="effect1_dropShadow_3207_1278"/>
<feColorMatrix in="SourceAlpha" type="matrix" values="0 0 0 0 0 0 0 0 0 0 0 0 0 0 0 0 0 0 127 0" result="hardAlpha"/>
<feOffset dy="2"/>
<feGaussianBlur stdDeviation="8"/>
<feComposite in2="hardAlpha" operator="out"/>
<feColorMatrix type="matrix" values="0 0 0 0 0 0 0 0 0 0 0 0 0 0 0 0 0 0 0.5 0"/>
<feBlend mode="normal" in2="effect1_dropShadow_3207_1278" result="effect2_dropShadow_3207_1278"/>
<feColorMatrix in="SourceAlpha" type="matrix" values="0 0 0 0 0 0 0 0 0 0 0 0 0 0 0 0 0 0 127 0" result="hardAlpha"/>
<feOffset dy="1"/>
<feGaussianBlur stdDeviation="0.5"/>
<feComposite in2="hardAlpha" operator="out"/>
<feColorMatrix type="matrix" values="0 0 0 0 0 0 0 0 0 0 0 0 0 0 0 0 0 0 0.5 0"/>
<feBlend mode="normal" in2="effect2_dropShadow_3207_1278" result="effect3_dropShadow_3207_1278"/>
<feBlend mode="normal" in="SourceGraphic" in2="effect3_dropShadow_3207_1278" result="shape"/>
</filter>
<radialGradient id="paint0_radial_3207_1278" cx="0" cy="0" r="1" gradientUnits="userSpaceOnUse" gradientTransform="translate(272 72) rotate(90) scale(74 1133.98)">
<stop stop-color="white" stop-opacity="0.33"/>
<stop offset="0.510275" stop-color="white" stop-opacity="0"/>
<stop offset="0.51043" stop-color="white" stop-opacity="0.23"/>
<stop offset="1" stop-color="white" stop-opacity="0.19"/>
</radialGradient>
</defs>
</svg>
