<svg width="376" height="40" viewBox="0 0 376 40" fill="none" xmlns="http://www.w3.org/2000/svg">
<path d="M0 0H24V32H40V40H0V32H16V8H0V0Z" fill="#D9D9D9"/>
<path d="M72 0H48V8H64V32H48V40H88V32H72V0Z" fill="#D9D9D9"/>
<path d="M184 0H144V8H160V32H144V40H184V32H168V8H184V0Z" fill="#D9D9D9"/>
<path d="M240 0H280V8H248V16H264V24H248V32H280V40H240V0Z" fill="#D9D9D9"/>
<path d="M288 0H296V32H328V40H288V0Z" fill="#D9D9D9"/>
<path d="M336 0H376V8H344V16H376V40H336V32H368V24H336V0Z" fill="#D9D9D9"/>
<path d="M216 16H208V8H200V0H192V8H200V16H208V24H200V32H192V40H200V32H208V24H216V32H224V40H232V32H224V24H216V16Z" fill="#D9D9D9"/>
<path d="M224 8V16H216V8H224Z" fill="#D9D9D9"/>
<path d="M224 8H232V0H224V8Z" fill="#D9D9D9"/>
<path d="M96 0V40H104V24V16V8H128V16H104V24H136V0H96Z" fill="#D9D9D9"/>
</svg>
