<svg width="128" height="128" viewBox="0 0 128 128" fill="none" xmlns="http://www.w3.org/2000/svg">
<g filter="url(#filter0_ddd_3207_1368)">
<path d="M64 92.4591V99.8031H71.344L93.412 77.7711L86.068 70.3911L64 92.4591ZM99.46 69.0951L94.708 64.3431C93.988 63.6231 92.8 63.6231 92.116 64.3431L88.588 67.8711L95.932 75.2151L99.46 71.6871C100.18 71.0031 100.18 69.8151 99.46 69.0951Z" fill="#32D86B"/>
<path d="M64 92.4591V99.8031H71.344L93.412 77.7711L86.068 70.3911L64 92.4591ZM99.46 69.0951L94.708 64.3431C93.988 63.6231 92.8 63.6231 92.116 64.3431L88.588 67.8711L95.932 75.2151L99.46 71.6871C100.18 71.0031 100.18 69.8151 99.46 69.0951Z" fill="url(#paint0_radial_3207_1368)"/>
<path d="M75.8384 70.4384L69.4 64L80.2 53.2H100V59.4528L99.7992 59.252C96.3694 55.8222 90.5827 55.6051 86.9827 59.2941L75.8384 70.4384Z" fill="#32D86B"/>
<path d="M75.8384 70.4384L69.4 64L80.2 53.2H100V59.4528L99.7992 59.252C96.3694 55.8222 90.5827 55.6051 86.9827 59.2941L75.8384 70.4384Z" fill="url(#paint1_radial_3207_1368)"/>
<path d="M70.4384 75.8384L64 69.4L53.2 80.2V100H56.8V89.4768L70.4384 75.8384Z" fill="#32D86B"/>
<path d="M70.4384 75.8384L64 69.4L53.2 80.2V100H56.8V89.4768L70.4384 75.8384Z" fill="url(#paint2_radial_3207_1368)"/>
<path d="M28 53.2H47.8L58.6 64L47.8 74.8H28V53.2Z" fill="#32D86B"/>
<path d="M28 53.2H47.8L58.6 64L47.8 74.8H28V53.2Z" fill="url(#paint3_radial_3207_1368)"/>
<path d="M74.8 28V47.8L64 58.6L53.2 47.8V28H74.8Z" fill="#32D86B"/>
<path d="M74.8 28V47.8L64 58.6L53.2 47.8V28H74.8Z" fill="url(#paint4_radial_3207_1368)"/>
</g>
<defs>
<filter id="filter0_ddd_3207_1368" x="12" y="14" width="104" height="104" filterUnits="userSpaceOnUse" color-interpolation-filters="sRGB">
<feFlood flood-opacity="0" result="BackgroundImageFix"/>
<feColorMatrix in="SourceAlpha" type="matrix" values="0 0 0 0 0 0 0 0 0 0 0 0 0 0 0 0 0 0 127 0" result="hardAlpha"/>
<feOffset dy="1"/>
<feGaussianBlur stdDeviation="2"/>
<feComposite in2="hardAlpha" operator="out"/>
<feColorMatrix type="matrix" values="0 0 0 0 0 0 0 0 0 0 0 0 0 0 0 0 0 0 0.5 0"/>
<feBlend mode="normal" in2="BackgroundImageFix" result="effect1_dropShadow_3207_1368"/>
<feColorMatrix in="SourceAlpha" type="matrix" values="0 0 0 0 0 0 0 0 0 0 0 0 0 0 0 0 0 0 127 0" result="hardAlpha"/>
<feOffset dy="2"/>
<feGaussianBlur stdDeviation="8"/>
<feComposite in2="hardAlpha" operator="out"/>
<feColorMatrix type="matrix" values="0 0 0 0 0 0 0 0 0 0 0 0 0 0 0 0 0 0 0.5 0"/>
<feBlend mode="normal" in2="effect1_dropShadow_3207_1368" result="effect2_dropShadow_3207_1368"/>
<feColorMatrix in="SourceAlpha" type="matrix" values="0 0 0 0 0 0 0 0 0 0 0 0 0 0 0 0 0 0 127 0" result="hardAlpha"/>
<feOffset dy="1"/>
<feGaussianBlur stdDeviation="0.5"/>
<feComposite in2="hardAlpha" operator="out"/>
<feColorMatrix type="matrix" values="0 0 0 0 0 0 0 0 0 0 0 0 0 0 0 0 0 0 0.5 0"/>
<feBlend mode="normal" in2="effect2_dropShadow_3207_1368" result="effect3_dropShadow_3207_1368"/>
<feBlend mode="normal" in="SourceGraphic" in2="effect3_dropShadow_3207_1368" result="shape"/>
</filter>
<radialGradient id="paint0_radial_3207_1368" cx="0" cy="0" r="1" gradientUnits="userSpaceOnUse" gradientTransform="translate(20 96) rotate(90) scale(74 1134.01)">
<stop stop-color="white" stop-opacity="0.33"/>
<stop offset="0.510275" stop-color="white" stop-opacity="0"/>
<stop offset="0.51043" stop-color="white" stop-opacity="0.23"/>
<stop offset="1" stop-color="white" stop-opacity="0.19"/>
</radialGradient>
<radialGradient id="paint1_radial_3207_1368" cx="0" cy="0" r="1" gradientUnits="userSpaceOnUse" gradientTransform="translate(20 96) rotate(90) scale(74 1134.01)">
<stop stop-color="white" stop-opacity="0.33"/>
<stop offset="0.510275" stop-color="white" stop-opacity="0"/>
<stop offset="0.51043" stop-color="white" stop-opacity="0.23"/>
<stop offset="1" stop-color="white" stop-opacity="0.19"/>
</radialGradient>
<radialGradient id="paint2_radial_3207_1368" cx="0" cy="0" r="1" gradientUnits="userSpaceOnUse" gradientTransform="translate(20 96) rotate(90) scale(74 1134.01)">
<stop stop-color="white" stop-opacity="0.33"/>
<stop offset="0.510275" stop-color="white" stop-opacity="0"/>
<stop offset="0.51043" stop-color="white" stop-opacity="0.23"/>
<stop offset="1" stop-color="white" stop-opacity="0.19"/>
</radialGradient>
<radialGradient id="paint3_radial_3207_1368" cx="0" cy="0" r="1" gradientUnits="userSpaceOnUse" gradientTransform="translate(20 96) rotate(90) scale(74 1134.01)">
<stop stop-color="white" stop-opacity="0.33"/>
<stop offset="0.510275" stop-color="white" stop-opacity="0"/>
<stop offset="0.51043" stop-color="white" stop-opacity="0.23"/>
<stop offset="1" stop-color="white" stop-opacity="0.19"/>
</radialGradient>
<radialGradient id="paint4_radial_3207_1368" cx="0" cy="0" r="1" gradientUnits="userSpaceOnUse" gradientTransform="translate(20 96) rotate(90) scale(74 1134.01)">
<stop stop-color="white" stop-opacity="0.33"/>
<stop offset="0.510275" stop-color="white" stop-opacity="0"/>
<stop offset="0.51043" stop-color="white" stop-opacity="0.23"/>
<stop offset="1" stop-color="white" stop-opacity="0.19"/>
</radialGradient>
</defs>
</svg>
