<svg width="128" height="128" viewBox="0 0 128 128" fill="none" xmlns="http://www.w3.org/2000/svg">
<g filter="url(#filter0_ddd_3207_1370)">
<path d="M88.9908 40.7987C84.3302 38.6181 79.3467 37.0333 74.1367 36.1309C73.4968 37.2877 72.7493 38.8437 72.2339 40.0815C66.6955 39.2486 61.208 39.2486 55.7715 40.0815C55.2562 38.8437 54.4917 37.2877 53.8461 36.1309C48.6304 37.0333 43.6413 38.6239 38.9806 40.8103C29.5799 55.0161 27.0316 68.8691 28.3057 82.5253C34.5408 87.1816 40.5832 90.0101 46.5237 91.861C47.9905 89.8423 49.2986 87.6964 50.4255 85.4348C48.2793 84.6192 46.2236 83.6128 44.2812 82.4444C44.7965 82.0626 45.3006 81.6635 45.7875 81.2528C57.6346 86.7941 70.5067 86.7941 82.2122 81.2528C82.7049 81.6635 83.2089 82.0626 83.7185 82.4444C81.7704 83.6185 79.7091 84.625 77.5629 85.4406C78.6898 87.6964 79.9923 89.8481 81.4647 91.8667C87.4109 90.0158 93.459 87.1874 99.694 82.5253C101.189 66.6942 97.14 52.9685 88.9908 40.7987ZM52.0395 74.1269C48.4832 74.1269 45.5667 70.8067 45.5667 66.7636C45.5667 62.7205 48.4209 59.3947 52.0395 59.3947C55.6583 59.3947 58.5747 62.7147 58.5124 66.7636C58.518 70.8067 55.6583 74.1269 52.0395 74.1269ZM75.9602 74.1269C72.4039 74.1269 69.4874 70.8067 69.4874 66.7636C69.4874 62.7205 72.3415 59.3947 75.9602 59.3947C79.5789 59.3947 82.4954 62.7147 82.4331 66.7636C82.4331 70.8067 79.5789 74.1269 75.9602 74.1269Z" fill="#498BED"/>
<path d="M88.9908 40.7987C84.3302 38.6181 79.3467 37.0333 74.1367 36.1309C73.4968 37.2877 72.7493 38.8437 72.2339 40.0815C66.6955 39.2486 61.208 39.2486 55.7715 40.0815C55.2562 38.8437 54.4917 37.2877 53.8461 36.1309C48.6304 37.0333 43.6413 38.6239 38.9806 40.8103C29.5799 55.0161 27.0316 68.8691 28.3057 82.5253C34.5408 87.1816 40.5832 90.0101 46.5237 91.861C47.9905 89.8423 49.2986 87.6964 50.4255 85.4348C48.2793 84.6192 46.2236 83.6128 44.2812 82.4444C44.7965 82.0626 45.3006 81.6635 45.7875 81.2528C57.6346 86.7941 70.5067 86.7941 82.2122 81.2528C82.7049 81.6635 83.2089 82.0626 83.7185 82.4444C81.7704 83.6185 79.7091 84.625 77.5629 85.4406C78.6898 87.6964 79.9923 89.8481 81.4647 91.8667C87.4109 90.0158 93.459 87.1874 99.694 82.5253C101.189 66.6942 97.14 52.9685 88.9908 40.7987ZM52.0395 74.1269C48.4832 74.1269 45.5667 70.8067 45.5667 66.7636C45.5667 62.7205 48.4209 59.3947 52.0395 59.3947C55.6583 59.3947 58.5747 62.7147 58.5124 66.7636C58.518 70.8067 55.6583 74.1269 52.0395 74.1269ZM75.9602 74.1269C72.4039 74.1269 69.4874 70.8067 69.4874 66.7636C69.4874 62.7205 72.3415 59.3947 75.9602 59.3947C79.5789 59.3947 82.4954 62.7147 82.4331 66.7636C82.4331 70.8067 79.5789 74.1269 75.9602 74.1269Z" fill="url(#paint0_radial_3207_1370)"/>
</g>
<defs>
<filter id="filter0_ddd_3207_1370" x="12" y="22.1309" width="104" height="87.7363" filterUnits="userSpaceOnUse" color-interpolation-filters="sRGB">
<feFlood flood-opacity="0" result="BackgroundImageFix"/>
<feColorMatrix in="SourceAlpha" type="matrix" values="0 0 0 0 0 0 0 0 0 0 0 0 0 0 0 0 0 0 127 0" result="hardAlpha"/>
<feOffset dy="1"/>
<feGaussianBlur stdDeviation="2"/>
<feComposite in2="hardAlpha" operator="out"/>
<feColorMatrix type="matrix" values="0 0 0 0 0 0 0 0 0 0 0 0 0 0 0 0 0 0 0.5 0"/>
<feBlend mode="normal" in2="BackgroundImageFix" result="effect1_dropShadow_3207_1370"/>
<feColorMatrix in="SourceAlpha" type="matrix" values="0 0 0 0 0 0 0 0 0 0 0 0 0 0 0 0 0 0 127 0" result="hardAlpha"/>
<feOffset dy="2"/>
<feGaussianBlur stdDeviation="8"/>
<feComposite in2="hardAlpha" operator="out"/>
<feColorMatrix type="matrix" values="0 0 0 0 0 0 0 0 0 0 0 0 0 0 0 0 0 0 0.5 0"/>
<feBlend mode="normal" in2="effect1_dropShadow_3207_1370" result="effect2_dropShadow_3207_1370"/>
<feColorMatrix in="SourceAlpha" type="matrix" values="0 0 0 0 0 0 0 0 0 0 0 0 0 0 0 0 0 0 127 0" result="hardAlpha"/>
<feOffset dy="1"/>
<feGaussianBlur stdDeviation="0.5"/>
<feComposite in2="hardAlpha" operator="out"/>
<feColorMatrix type="matrix" values="0 0 0 0 0 0 0 0 0 0 0 0 0 0 0 0 0 0 0.5 0"/>
<feBlend mode="normal" in2="effect2_dropShadow_3207_1370" result="effect3_dropShadow_3207_1370"/>
<feBlend mode="normal" in="SourceGraphic" in2="effect3_dropShadow_3207_1370" result="shape"/>
</filter>
<radialGradient id="paint0_radial_3207_1370" cx="0" cy="0" r="1" gradientUnits="userSpaceOnUse" gradientTransform="translate(-68 96) rotate(90) scale(74.0002 1134.01)">
<stop stop-color="white" stop-opacity="0.33"/>
<stop offset="0.510275" stop-color="white" stop-opacity="0"/>
<stop offset="0.51043" stop-color="white" stop-opacity="0.23"/>
<stop offset="1" stop-color="white" stop-opacity="0.19"/>
</radialGradient>
</defs>
</svg>
