<svg width="128" height="128" viewBox="0 0 128 128" fill="none" xmlns="http://www.w3.org/2000/svg">
<g filter="url(#filter0_ddd_3207_1372)">
<path d="M74.2666 98.5149C89.1469 94.0953 100 80.3151 100 64C100 44.1177 83.8823 28 64 28C44.1177 28 28 44.1177 28 64C28 80.2797 38.8061 94.0356 53.6367 98.486C54.6012 98.2869 54.9787 97.4547 54.9787 96.7269C54.9787 96.4369 54.9717 95.9031 54.9625 95.2049C54.9451 93.8856 54.9199 91.979 54.9199 90.0214C44.9354 92.177 42.8562 85.7109 42.8562 85.7109C41.2517 81.5202 38.8742 80.4432 38.8742 80.4432C35.6063 78.2281 39.1122 78.2281 39.1122 78.2281C42.7372 78.4676 44.6393 81.9398 44.6393 81.9398C47.8478 87.447 53.0178 85.8909 55.0977 84.9329C55.3945 82.598 56.346 80.9817 57.3562 80.0839C49.3928 79.2456 41.0144 76.1327 41.0144 62.2433C41.0144 58.2922 42.4397 55.0595 44.6981 52.5454C44.3418 51.6476 43.0936 47.9352 45.0552 42.9665C45.0552 42.9665 48.0858 42.0084 54.9192 46.6781C57.8448 45.8866 60.8619 45.484 63.8927 45.4806C66.9234 45.4806 70.0127 45.9001 72.8656 46.6781C79.6997 42.0084 82.7303 42.9665 82.7303 42.9665C84.6919 47.9352 83.4429 51.6476 83.0866 52.5454C85.4046 55.0595 86.7711 58.2922 86.7711 62.2433C86.7711 76.1327 78.3927 79.1854 70.3698 80.0839C71.6776 81.2212 72.806 83.3761 72.806 86.7887C72.806 90.0282 72.7798 92.8404 72.7624 94.7073C72.7537 95.6347 72.7473 96.329 72.7473 96.7262C72.7473 97.4976 73.1711 98.3856 74.2666 98.5149Z" fill="#B92CEB"/>
<path d="M74.2666 98.5149C89.1469 94.0953 100 80.3151 100 64C100 44.1177 83.8823 28 64 28C44.1177 28 28 44.1177 28 64C28 80.2797 38.8061 94.0356 53.6367 98.486C54.6012 98.2869 54.9787 97.4547 54.9787 96.7269C54.9787 96.4369 54.9717 95.9031 54.9625 95.2049C54.9451 93.8856 54.9199 91.979 54.9199 90.0214C44.9354 92.177 42.8562 85.7109 42.8562 85.7109C41.2517 81.5202 38.8742 80.4432 38.8742 80.4432C35.6063 78.2281 39.1122 78.2281 39.1122 78.2281C42.7372 78.4676 44.6393 81.9398 44.6393 81.9398C47.8478 87.447 53.0178 85.8909 55.0977 84.9329C55.3945 82.598 56.346 80.9817 57.3562 80.0839C49.3928 79.2456 41.0144 76.1327 41.0144 62.2433C41.0144 58.2922 42.4397 55.0595 44.6981 52.5454C44.3418 51.6476 43.0936 47.9352 45.0552 42.9665C45.0552 42.9665 48.0858 42.0084 54.9192 46.6781C57.8448 45.8866 60.8619 45.484 63.8927 45.4806C66.9234 45.4806 70.0127 45.9001 72.8656 46.6781C79.6997 42.0084 82.7303 42.9665 82.7303 42.9665C84.6919 47.9352 83.4429 51.6476 83.0866 52.5454C85.4046 55.0595 86.7711 58.2922 86.7711 62.2433C86.7711 76.1327 78.3927 79.1854 70.3698 80.0839C71.6776 81.2212 72.806 83.3761 72.806 86.7887C72.806 90.0282 72.7798 92.8404 72.7624 94.7073C72.7537 95.6347 72.7473 96.329 72.7473 96.7262C72.7473 97.4976 73.1711 98.3856 74.2666 98.5149Z" fill="url(#paint0_radial_3207_1372)"/>
</g>
<defs>
<filter id="filter0_ddd_3207_1372" x="12" y="14" width="104" height="102.516" filterUnits="userSpaceOnUse" color-interpolation-filters="sRGB">
<feFlood flood-opacity="0" result="BackgroundImageFix"/>
<feColorMatrix in="SourceAlpha" type="matrix" values="0 0 0 0 0 0 0 0 0 0 0 0 0 0 0 0 0 0 127 0" result="hardAlpha"/>
<feOffset dy="1"/>
<feGaussianBlur stdDeviation="2"/>
<feComposite in2="hardAlpha" operator="out"/>
<feColorMatrix type="matrix" values="0 0 0 0 0 0 0 0 0 0 0 0 0 0 0 0 0 0 0.5 0"/>
<feBlend mode="normal" in2="BackgroundImageFix" result="effect1_dropShadow_3207_1372"/>
<feColorMatrix in="SourceAlpha" type="matrix" values="0 0 0 0 0 0 0 0 0 0 0 0 0 0 0 0 0 0 127 0" result="hardAlpha"/>
<feOffset dy="2"/>
<feGaussianBlur stdDeviation="8"/>
<feComposite in2="hardAlpha" operator="out"/>
<feColorMatrix type="matrix" values="0 0 0 0 0 0 0 0 0 0 0 0 0 0 0 0 0 0 0.5 0"/>
<feBlend mode="normal" in2="effect1_dropShadow_3207_1372" result="effect2_dropShadow_3207_1372"/>
<feColorMatrix in="SourceAlpha" type="matrix" values="0 0 0 0 0 0 0 0 0 0 0 0 0 0 0 0 0 0 127 0" result="hardAlpha"/>
<feOffset dy="1"/>
<feGaussianBlur stdDeviation="0.5"/>
<feComposite in2="hardAlpha" operator="out"/>
<feColorMatrix type="matrix" values="0 0 0 0 0 0 0 0 0 0 0 0 0 0 0 0 0 0 0.5 0"/>
<feBlend mode="normal" in2="effect2_dropShadow_3207_1372" result="effect3_dropShadow_3207_1372"/>
<feBlend mode="normal" in="SourceGraphic" in2="effect3_dropShadow_3207_1372" result="shape"/>
</filter>
<radialGradient id="paint0_radial_3207_1372" cx="0" cy="0" r="1" gradientUnits="userSpaceOnUse" gradientTransform="translate(-156 96) rotate(90) scale(73.9998 1134.01)">
<stop stop-color="white" stop-opacity="0.33"/>
<stop offset="0.510275" stop-color="white" stop-opacity="0"/>
<stop offset="0.51043" stop-color="white" stop-opacity="0.23"/>
<stop offset="1" stop-color="white" stop-opacity="0.19"/>
</radialGradient>
</defs>
</svg>
