<svg width="128" height="128" viewBox="0 0 128 128" fill="none" xmlns="http://www.w3.org/2000/svg">
<g filter="url(#filter0_ddd_3207_1366)">
<path fill-rule="evenodd" clip-rule="evenodd" d="M81.5206 28.9261C89.5133 30.1075 96.2558 36.204 97.2966 43.9401C97.75 48.5414 97.5256 55.455 97.4164 58.8156C97.3893 59.6515 97.3693 60.2683 97.3686 60.574C97.3686 61.0256 97.3032 65.1489 97.277 65.5841C96.5765 76.6385 89.6836 81.0039 82.4404 82.3947C82.3622 82.4182 82.2737 82.4354 82.183 82.453L82.113 82.4667C77.521 83.3634 72.6016 83.6022 67.9344 83.7331C66.8182 83.7626 65.7054 83.7626 64.5894 83.7626C59.9487 83.7638 55.3243 83.2146 50.8132 82.1264C50.7893 82.1202 50.7642 82.1197 50.7401 82.125C50.7159 82.1302 50.6935 82.1412 50.6743 82.1568C50.6551 82.1724 50.64 82.1923 50.63 82.2148C50.62 82.2374 50.6155 82.2621 50.6168 82.2867C50.7443 83.7553 51.0634 85.2009 51.566 86.5868C52.1911 88.1903 54.3742 92.0419 62.4913 92.0419C67.2079 92.0506 71.909 91.5014 76.4966 90.4056C76.5199 90.4003 76.5441 90.4002 76.5674 90.4054C76.5908 90.4106 76.6127 90.4209 76.6315 90.4357C76.6504 90.4504 76.6656 90.4692 76.6763 90.4906C76.6869 90.5121 76.6926 90.5356 76.693 90.5595V95.9852C76.6921 96.0108 76.6855 96.0358 76.6735 96.0585C76.6616 96.0811 76.6448 96.1008 76.6242 96.1161C75.1899 97.1556 73.2611 97.7668 71.572 98.302L71.3448 98.3741C70.5768 98.6163 69.7988 98.829 69.0111 99.0122C61.8508 100.643 54.3778 100.249 47.4289 97.8734C40.9385 95.5957 34.3139 90.013 32.6773 83.3045C31.8034 79.6721 31.1876 75.9825 30.8346 72.2632C30.4637 68.196 30.3398 64.1219 30.2157 60.0421C30.169 58.5054 30.1222 56.9679 30.0622 55.4297C29.9084 51.5093 29.9967 47.2355 30.8248 43.3805C32.5464 35.5528 39.6423 30.0747 47.4125 28.9261C47.5722 28.9025 47.7486 28.8714 47.9552 28.8351C49.493 28.5646 52.7028 28 63.1394 28H63.2278C75.063 28 80.1721 28.7265 81.5206 28.9261ZM85.549 70.5032V51.7661C85.549 47.9296 84.5802 44.8979 82.6426 42.6419C80.6337 40.386 78.0123 39.2364 74.7639 39.2364C70.9885 39.2364 68.1391 40.7021 66.2585 43.619L64.4207 46.7227L62.5828 43.619C60.7021 40.7021 57.8385 39.2364 54.0774 39.2364C50.8289 39.2364 48.2076 40.386 46.1987 42.6419C44.2611 44.8979 43.2923 47.944 43.2923 51.7661V70.5032H50.6437V52.3265C50.6437 48.49 52.2536 46.5502 55.445 46.5502C58.9925 46.5502 60.7592 48.8492 60.7592 53.4186V63.3763H68.0678V53.4186C68.0678 48.8636 69.8488 46.5502 73.382 46.5502C76.5876 46.5502 78.1833 48.49 78.1833 52.3265V70.5032H85.549Z" fill="#F3CB3D"/>
<path fill-rule="evenodd" clip-rule="evenodd" d="M81.5206 28.9261C89.5133 30.1075 96.2558 36.204 97.2966 43.9401C97.75 48.5414 97.5256 55.455 97.4164 58.8156C97.3893 59.6515 97.3693 60.2683 97.3686 60.574C97.3686 61.0256 97.3032 65.1489 97.277 65.5841C96.5765 76.6385 89.6836 81.0039 82.4404 82.3947C82.3622 82.4182 82.2737 82.4354 82.183 82.453L82.113 82.4667C77.521 83.3634 72.6016 83.6022 67.9344 83.7331C66.8182 83.7626 65.7054 83.7626 64.5894 83.7626C59.9487 83.7638 55.3243 83.2146 50.8132 82.1264C50.7893 82.1202 50.7642 82.1197 50.7401 82.125C50.7159 82.1302 50.6935 82.1412 50.6743 82.1568C50.6551 82.1724 50.64 82.1923 50.63 82.2148C50.62 82.2374 50.6155 82.2621 50.6168 82.2867C50.7443 83.7553 51.0634 85.2009 51.566 86.5868C52.1911 88.1903 54.3742 92.0419 62.4913 92.0419C67.2079 92.0506 71.909 91.5014 76.4966 90.4056C76.5199 90.4003 76.5441 90.4002 76.5674 90.4054C76.5908 90.4106 76.6127 90.4209 76.6315 90.4357C76.6504 90.4504 76.6656 90.4692 76.6763 90.4906C76.6869 90.5121 76.6926 90.5356 76.693 90.5595V95.9852C76.6921 96.0108 76.6855 96.0358 76.6735 96.0585C76.6616 96.0811 76.6448 96.1008 76.6242 96.1161C75.1899 97.1556 73.2611 97.7668 71.572 98.302L71.3448 98.3741C70.5768 98.6163 69.7988 98.829 69.0111 99.0122C61.8508 100.643 54.3778 100.249 47.4289 97.8734C40.9385 95.5957 34.3139 90.013 32.6773 83.3045C31.8034 79.6721 31.1876 75.9825 30.8346 72.2632C30.4637 68.196 30.3398 64.1219 30.2157 60.0421C30.169 58.5054 30.1222 56.9679 30.0622 55.4297C29.9084 51.5093 29.9967 47.2355 30.8248 43.3805C32.5464 35.5528 39.6423 30.0747 47.4125 28.9261C47.5722 28.9025 47.7486 28.8714 47.9552 28.8351C49.493 28.5646 52.7028 28 63.1394 28H63.2278C75.063 28 80.1721 28.7265 81.5206 28.9261ZM85.549 70.5032V51.7661C85.549 47.9296 84.5802 44.8979 82.6426 42.6419C80.6337 40.386 78.0123 39.2364 74.7639 39.2364C70.9885 39.2364 68.1391 40.7021 66.2585 43.619L64.4207 46.7227L62.5828 43.619C60.7021 40.7021 57.8385 39.2364 54.0774 39.2364C50.8289 39.2364 48.2076 40.386 46.1987 42.6419C44.2611 44.8979 43.2923 47.944 43.2923 51.7661V70.5032H50.6437V52.3265C50.6437 48.49 52.2536 46.5502 55.445 46.5502C58.9925 46.5502 60.7592 48.8492 60.7592 53.4186V63.3763H68.0678V53.4186C68.0678 48.8636 69.8488 46.5502 73.382 46.5502C76.5876 46.5502 78.1833 48.49 78.1833 52.3265V70.5032H85.549Z" fill="url(#paint0_radial_3207_1366)"/>
</g>
<defs>
<filter id="filter0_ddd_3207_1366" x="14" y="14" width="99.5684" height="104" filterUnits="userSpaceOnUse" color-interpolation-filters="sRGB">
<feFlood flood-opacity="0" result="BackgroundImageFix"/>
<feColorMatrix in="SourceAlpha" type="matrix" values="0 0 0 0 0 0 0 0 0 0 0 0 0 0 0 0 0 0 127 0" result="hardAlpha"/>
<feOffset dy="1"/>
<feGaussianBlur stdDeviation="2"/>
<feComposite in2="hardAlpha" operator="out"/>
<feColorMatrix type="matrix" values="0 0 0 0 0 0 0 0 0 0 0 0 0 0 0 0 0 0 0.5 0"/>
<feBlend mode="normal" in2="BackgroundImageFix" result="effect1_dropShadow_3207_1366"/>
<feColorMatrix in="SourceAlpha" type="matrix" values="0 0 0 0 0 0 0 0 0 0 0 0 0 0 0 0 0 0 127 0" result="hardAlpha"/>
<feOffset dy="2"/>
<feGaussianBlur stdDeviation="8"/>
<feComposite in2="hardAlpha" operator="out"/>
<feColorMatrix type="matrix" values="0 0 0 0 0 0 0 0 0 0 0 0 0 0 0 0 0 0 0.5 0"/>
<feBlend mode="normal" in2="effect1_dropShadow_3207_1366" result="effect2_dropShadow_3207_1366"/>
<feColorMatrix in="SourceAlpha" type="matrix" values="0 0 0 0 0 0 0 0 0 0 0 0 0 0 0 0 0 0 127 0" result="hardAlpha"/>
<feOffset dy="1"/>
<feGaussianBlur stdDeviation="0.5"/>
<feComposite in2="hardAlpha" operator="out"/>
<feColorMatrix type="matrix" values="0 0 0 0 0 0 0 0 0 0 0 0 0 0 0 0 0 0 0.5 0"/>
<feBlend mode="normal" in2="effect2_dropShadow_3207_1366" result="effect3_dropShadow_3207_1366"/>
<feBlend mode="normal" in="SourceGraphic" in2="effect3_dropShadow_3207_1366" result="shape"/>
</filter>
<radialGradient id="paint0_radial_3207_1366" cx="0" cy="0" r="1" gradientUnits="userSpaceOnUse" gradientTransform="translate(108 95.9999) rotate(90) scale(74.0001 1134.03)">
<stop stop-color="white" stop-opacity="0.33"/>
<stop offset="0.510275" stop-color="white" stop-opacity="0"/>
<stop offset="0.51043" stop-color="white" stop-opacity="0.23"/>
<stop offset="1" stop-color="white" stop-opacity="0.19"/>
</radialGradient>
</defs>
</svg>
