<svg width="128" height="128" viewBox="0 0 128 128" fill="none" xmlns="http://www.w3.org/2000/svg">
<g filter="url(#filter0_ddd_3207_1364)">
<path d="M84.5725 100H72.4256C61.4992 100 53.3569 94.4281 53.3569 81.1017V59.7584H43.4297V48.1992C54.3541 45.3897 58.9249 36.0718 59.4499 28H70.7936V46.3262H84.0318V59.7584H70.7956V78.3432C70.7956 83.9131 73.6325 85.839 78.1484 85.839H84.5569L84.5725 100Z" fill="#F89438"/>
<path d="M84.5725 100H72.4256C61.4992 100 53.3569 94.4281 53.3569 81.1017V59.7584H43.4297V48.1992C54.3541 45.3897 58.9249 36.0718 59.4499 28H70.7936V46.3262H84.0318V59.7584H70.7956V78.3432C70.7956 83.9131 73.6325 85.839 78.1484 85.839H84.5569L84.5725 100Z" fill="url(#paint0_radial_3207_1364)"/>
</g>
<defs>
<filter id="filter0_ddd_3207_1364" x="27.4297" y="14" width="73.1426" height="104" filterUnits="userSpaceOnUse" color-interpolation-filters="sRGB">
<feFlood flood-opacity="0" result="BackgroundImageFix"/>
<feColorMatrix in="SourceAlpha" type="matrix" values="0 0 0 0 0 0 0 0 0 0 0 0 0 0 0 0 0 0 127 0" result="hardAlpha"/>
<feOffset dy="1"/>
<feGaussianBlur stdDeviation="2"/>
<feComposite in2="hardAlpha" operator="out"/>
<feColorMatrix type="matrix" values="0 0 0 0 0 0 0 0 0 0 0 0 0 0 0 0 0 0 0.5 0"/>
<feBlend mode="normal" in2="BackgroundImageFix" result="effect1_dropShadow_3207_1364"/>
<feColorMatrix in="SourceAlpha" type="matrix" values="0 0 0 0 0 0 0 0 0 0 0 0 0 0 0 0 0 0 127 0" result="hardAlpha"/>
<feOffset dy="2"/>
<feGaussianBlur stdDeviation="8"/>
<feComposite in2="hardAlpha" operator="out"/>
<feColorMatrix type="matrix" values="0 0 0 0 0 0 0 0 0 0 0 0 0 0 0 0 0 0 0.5 0"/>
<feBlend mode="normal" in2="effect1_dropShadow_3207_1364" result="effect2_dropShadow_3207_1364"/>
<feColorMatrix in="SourceAlpha" type="matrix" values="0 0 0 0 0 0 0 0 0 0 0 0 0 0 0 0 0 0 127 0" result="hardAlpha"/>
<feOffset dy="1"/>
<feGaussianBlur stdDeviation="0.5"/>
<feComposite in2="hardAlpha" operator="out"/>
<feColorMatrix type="matrix" values="0 0 0 0 0 0 0 0 0 0 0 0 0 0 0 0 0 0 0.5 0"/>
<feBlend mode="normal" in2="effect2_dropShadow_3207_1364" result="effect3_dropShadow_3207_1364"/>
<feBlend mode="normal" in="SourceGraphic" in2="effect3_dropShadow_3207_1364" result="shape"/>
</filter>
<radialGradient id="paint0_radial_3207_1364" cx="0" cy="0" r="1" gradientUnits="userSpaceOnUse" gradientTransform="translate(196 96) rotate(90) scale(74 1134.05)">
<stop stop-color="white" stop-opacity="0.33"/>
<stop offset="0.510275" stop-color="white" stop-opacity="0"/>
<stop offset="0.51043" stop-color="white" stop-opacity="0.23"/>
<stop offset="1" stop-color="white" stop-opacity="0.19"/>
</radialGradient>
</defs>
</svg>
