<svg width="128" height="128" viewBox="0 0 128 128" fill="none" xmlns="http://www.w3.org/2000/svg">
<g filter="url(#filter0_ddd_3207_1362)">
<path fill-rule="evenodd" clip-rule="evenodd" d="M92.1299 40.3053C95.2277 41.1333 97.6674 43.573 98.4955 46.6708C100 52.2857 100 64.0008 100 64.0008C100 64.0008 100 75.7159 98.4955 81.3308C97.6674 84.4286 95.2277 86.8683 92.1299 87.6963C86.515 89.2008 64 89.2008 64 89.2008C64 89.2008 41.485 89.2008 35.8701 87.6963C32.7723 86.8683 30.3326 84.4286 29.5045 81.3308C28 75.7159 28 64.0008 28 64.0008C28 64.0008 28 52.2857 29.5045 46.6708C30.3326 43.573 32.7723 41.1333 35.8701 40.3053C41.485 38.8008 64 38.8008 64 38.8008C64 38.8008 86.515 38.8008 92.1299 40.3053ZM75.5053 64.0011L56.8 74.8008V53.2008L75.5053 64.0011Z" fill="#F85353"/>
<path fill-rule="evenodd" clip-rule="evenodd" d="M92.1299 40.3053C95.2277 41.1333 97.6674 43.573 98.4955 46.6708C100 52.2857 100 64.0008 100 64.0008C100 64.0008 100 75.7159 98.4955 81.3308C97.6674 84.4286 95.2277 86.8683 92.1299 87.6963C86.515 89.2008 64 89.2008 64 89.2008C64 89.2008 41.485 89.2008 35.8701 87.6963C32.7723 86.8683 30.3326 84.4286 29.5045 81.3308C28 75.7159 28 64.0008 28 64.0008C28 64.0008 28 52.2857 29.5045 46.6708C30.3326 43.573 32.7723 41.1333 35.8701 40.3053C41.485 38.8008 64 38.8008 64 38.8008C64 38.8008 86.515 38.8008 92.1299 40.3053ZM75.5053 64.0011L56.8 74.8008V53.2008L75.5053 64.0011Z" fill="url(#paint0_radial_3207_1362)"/>
</g>
<defs>
<filter id="filter0_ddd_3207_1362" x="12" y="24.8008" width="104" height="82.4004" filterUnits="userSpaceOnUse" color-interpolation-filters="sRGB">
<feFlood flood-opacity="0" result="BackgroundImageFix"/>
<feColorMatrix in="SourceAlpha" type="matrix" values="0 0 0 0 0 0 0 0 0 0 0 0 0 0 0 0 0 0 127 0" result="hardAlpha"/>
<feOffset dy="1"/>
<feGaussianBlur stdDeviation="2"/>
<feComposite in2="hardAlpha" operator="out"/>
<feColorMatrix type="matrix" values="0 0 0 0 0 0 0 0 0 0 0 0 0 0 0 0 0 0 0.5 0"/>
<feBlend mode="normal" in2="BackgroundImageFix" result="effect1_dropShadow_3207_1362"/>
<feColorMatrix in="SourceAlpha" type="matrix" values="0 0 0 0 0 0 0 0 0 0 0 0 0 0 0 0 0 0 127 0" result="hardAlpha"/>
<feOffset dy="2"/>
<feGaussianBlur stdDeviation="8"/>
<feComposite in2="hardAlpha" operator="out"/>
<feColorMatrix type="matrix" values="0 0 0 0 0 0 0 0 0 0 0 0 0 0 0 0 0 0 0.5 0"/>
<feBlend mode="normal" in2="effect1_dropShadow_3207_1362" result="effect2_dropShadow_3207_1362"/>
<feColorMatrix in="SourceAlpha" type="matrix" values="0 0 0 0 0 0 0 0 0 0 0 0 0 0 0 0 0 0 127 0" result="hardAlpha"/>
<feOffset dy="1"/>
<feGaussianBlur stdDeviation="0.5"/>
<feComposite in2="hardAlpha" operator="out"/>
<feColorMatrix type="matrix" values="0 0 0 0 0 0 0 0 0 0 0 0 0 0 0 0 0 0 0.5 0"/>
<feBlend mode="normal" in2="effect2_dropShadow_3207_1362" result="effect3_dropShadow_3207_1362"/>
<feBlend mode="normal" in="SourceGraphic" in2="effect3_dropShadow_3207_1362" result="shape"/>
</filter>
<radialGradient id="paint0_radial_3207_1362" cx="0" cy="0" r="1" gradientUnits="userSpaceOnUse" gradientTransform="translate(284 96) rotate(90) scale(74 1133.98)">
<stop stop-color="white" stop-opacity="0.33"/>
<stop offset="0.510275" stop-color="white" stop-opacity="0"/>
<stop offset="0.51043" stop-color="white" stop-opacity="0.23"/>
<stop offset="1" stop-color="white" stop-opacity="0.19"/>
</radialGradient>
</defs>
</svg>
